<?xml version="1.0" standalone="no"?>
<!DOCTYPE svg PUBLIC "-//W3C//DTD SVG 20010904//EN"
 "http://www.w3.org/TR/2001/REC-SVG-20010904/DTD/svg10.dtd">
<svg version="1.0" xmlns="http://www.w3.org/2000/svg"
 width="5000.000000pt" height="5000.000000pt" viewBox="0 0 5000.000000 5000.000000"
 preserveAspectRatio="xMidYMid meet">

<g transform="translate(0.000000,5000.000000) scale(0.100000,-0.100000)"
fill="#000000" stroke="none">
<path d="M14153 29766 c-270 -52 -496 -220 -607 -451 -88 -183 -92 -426 -11
-612 70 -157 220 -310 390 -395 168 -85 423 -107 614 -52 272 78 495 307 557
572 21 87 21 257 0 344 -53 225 -228 432 -449 534 -135 61 -350 87 -494 60z"/>
<path d="M21090 28125 l0 -625 805 0 805 0 0 -2225 0 -2225 900 0 900 0 0
2225 0 2225 805 0 805 0 0 625 0 625 -2510 0 -2510 0 0 -625z"/>
<path d="M26640 25900 l0 -2850 2070 0 2070 0 0 610 0 610 -1170 0 -1170 0 0
580 0 580 990 0 990 0 0 540 0 540 -990 0 -990 0 0 520 0 520 1175 0 1175 0 0
600 0 600 -2075 0 -2075 0 0 -2850z"/>
<path d="M31974 25903 l-920 -2848 915 -3 c503 -1 916 -1 917 1 2 2 70 282
152 622 l149 620 833 0 833 0 148 -619 c82 -341 151 -621 152 -623 2 -2 417
-2 923 -1 l919 3 -879 2848 -879 2847 -1172 0 -1171 0 -920 -2847z m2358 567
c152 -575 277 -1048 278 -1052 0 -5 -268 -8 -596 -8 -508 0 -595 2 -592 14 2
8 134 483 293 1055 288 1036 290 1042 315 1039 24 -3 31 -28 302 -1048z"/>
<path d="M19155 27744 c-395 -37 -703 -143 -1005 -345 -184 -123 -392 -310
-532 -477 -20 -24 -38 -40 -41 -35 -2 4 -46 178 -98 386 l-93 377 -693 0 -693
0 0 -2300 0 -2300 855 0 855 0 0 1586 0 1585 34 14 c80 34 270 84 376 100 157
23 432 31 541 16 119 -17 187 -52 216 -111 12 -25 27 -80 32 -123 7 -52 11
-581 11 -1573 l0 -1494 855 0 855 0 0 1268 c-1 2111 -22 2593 -126 2924 -22
69 -34 88 -91 149 -206 218 -568 337 -1073 352 -80 3 -163 3 -185 1z"/>
<path d="M13440 25350 l0 -2300 855 0 855 0 0 2300 0 2300 -855 0 -855 0 0
-2300z"/>
</g>
</svg>
